<svg width="94" height="89" viewBox="0 0 94 89" fill="none" xmlns="http://www.w3.org/2000/svg">
<path fill-rule="evenodd" clip-rule="evenodd" d="M56.334 19V9.66671H37.6673V19H56.334ZM9.66732 28.3334V79.6667H84.334V28.3334H9.66732ZM84.334 19C89.514 19 93.6673 23.1534 93.6673 28.3334V79.6667C93.6673 84.8467 89.514 89 84.334 89H9.66732C4.48732 89 0.333984 84.8467 0.333984 79.6667L0.380651 28.3334C0.380651 23.1534 4.48732 19 9.66732 19H28.334V9.66671C28.334 4.48671 32.4873 0.333374 37.6673 0.333374H56.334C61.514 0.333374 65.6673 4.48671 65.6673 9.66671V19H84.334Z" fill="#FFA2A2"/>
</svg>
