<svg xmlns="http://www.w3.org/2000/svg" width="65" height="65" viewBox="0 0 65 65" fill="none">
  <path d="M18.957 13.5418H46.0404V18.9585H51.457V8.12516C51.457 5.146 49.0195 2.73558 46.0404 2.73558L18.957 2.7085C15.9779 2.7085 13.5404 5.146 13.5404 8.12516V18.9585H18.957V13.5418ZM41.7341 44.9314L54.1654 32.5002L41.7341 20.0689L37.9154 23.9147L46.5008 32.5002L37.9154 41.0856L41.7341 44.9314ZM27.082 41.0856L18.4966 32.5002L27.082 23.9147L23.2633 20.0689L10.832 32.5002L23.2633 44.9314L27.082 41.0856ZM46.0404 51.4585H18.957V46.0418H13.5404V56.8752C13.5404 59.8543 15.9779 62.2918 18.957 62.2918H46.0404C49.0195 62.2918 51.457 59.8543 51.457 56.8752V46.0418H46.0404V51.4585Z" fill="#92E6E6"/>
</svg>
