<svg width="40" height="40" viewBox="0 0 40 40" fill="none" xmlns="http://www.w3.org/2000/svg">
<g clip-path="url(#clip0)">
<g clip-path="url(#clip1)">
<path d="M34.6806 8.4288H32.3094V6.73721C32.3094 6.2501 31.8666 5.85156 31.3255 5.85156C30.7843 5.85156 30.3416 6.2501 30.3416 6.73721V8.4288H20.6992V6.73721C20.6992 6.2501 20.2565 5.85156 19.7153 5.85156C19.1742 5.85156 18.7314 6.2501 18.7314 6.73721V8.4288H8.99068V6.73721C8.99068 6.2501 8.54792 5.85156 8.00677 5.85156C7.46562 5.85156 7.02286 6.2501 7.02286 6.73721V8.4288H4.75002C2.58542 8.4288 0.824219 10.0672 0.824219 12.0157V32.607C0.824219 34.5643 2.57558 36.1496 4.75002 36.1496H34.6708C36.8452 36.1496 38.5966 34.5643 38.5966 32.6158V12.0157C38.6064 10.0672 36.8452 8.4288 34.6806 8.4288ZM36.6386 32.607C36.6386 33.5812 35.7727 34.3694 34.6904 34.3783H34.6806H4.75002C3.66772 34.3783 2.79204 33.59 2.79204 32.6158V32.607V12.0157C2.79204 11.0326 3.66772 10.2001 4.75002 10.2001H7.02286V11.4843C7.02286 11.9714 7.46562 12.3699 8.00677 12.3699C8.54792 12.3699 8.99068 11.9714 8.99068 11.4843V10.2001H18.7314V11.4843C18.7314 11.9714 19.1742 12.3699 19.7153 12.3699C20.2565 12.3699 20.6992 11.9714 20.6992 11.4843V10.2001H30.3416V11.4843C30.3416 11.9714 30.7843 12.3699 31.3255 12.3699C31.8666 12.3699 32.3094 11.9714 32.3094 11.4843V10.2001H34.6806C35.7727 10.2001 36.6386 11.0415 36.6386 12.0157V32.607Z" fill="#505050"/>
<path d="M17.1276 15.957H15.4058C14.8646 15.957 14.4219 16.3556 14.4219 16.8427C14.4219 17.3298 14.8646 17.7283 15.4058 17.7283H17.1276C17.6688 17.7283 18.1115 17.3298 18.1115 16.8427C18.1115 16.3556 17.6688 15.957 17.1276 15.957Z" fill="#505050"/>
<path d="M23.9758 15.957H22.2539C21.7128 15.957 21.27 16.3556 21.27 16.8427C21.27 17.3298 21.7128 17.7283 22.2539 17.7283H23.9758C24.5169 17.7283 24.9597 17.3298 24.9597 16.8427C24.9597 16.3556 24.5268 15.957 23.9758 15.957Z" fill="#505050"/>
<path d="M30.8825 15.957H29.1607C28.6195 15.957 28.1768 16.3556 28.1768 16.8427C28.1768 17.3298 28.6195 17.7283 29.1607 17.7283H30.8825C31.4237 17.7283 31.8664 17.3298 31.8664 16.8427C31.8664 16.3556 31.4237 15.957 30.8825 15.957Z" fill="#505050"/>
<path d="M17.1276 22.0664H15.4058C14.8646 22.0664 14.4219 22.4649 14.4219 22.9521C14.4219 23.4392 14.8646 23.8377 15.4058 23.8377H17.1276C17.6688 23.8377 18.1115 23.4392 18.1115 22.9521C18.1115 22.4649 17.6688 22.0664 17.1276 22.0664Z" fill="#505050"/>
<path d="M10.2307 22.0664H8.49905C7.9579 22.0664 7.51514 22.4649 7.51514 22.9521C7.51514 23.4392 7.9579 23.8377 8.49905 23.8377H10.2209C10.762 23.8377 11.2048 23.4392 11.2048 22.9521C11.2048 22.4649 10.7719 22.0664 10.2307 22.0664Z" fill="#505050"/>
<path d="M23.9758 22.0664H22.2539C21.7128 22.0664 21.27 22.4649 21.27 22.9521C21.27 23.4392 21.7128 23.8377 22.2539 23.8377H23.9758C24.5169 23.8377 24.9597 23.4392 24.9597 22.9521C24.9597 22.4649 24.5268 22.0664 23.9758 22.0664Z" fill="#505050"/>
<path d="M30.8825 22.0664H29.1607C28.6195 22.0664 28.1768 22.4649 28.1768 22.9521C28.1768 23.4392 28.6195 23.8377 29.1607 23.8377H30.8825C31.4237 23.8377 31.8664 23.4392 31.8664 22.9521C31.8664 22.4649 31.4237 22.0664 30.8825 22.0664Z" fill="#505050"/>
<path d="M17.1276 28.0898H15.4058C14.8646 28.0898 14.4219 28.4884 14.4219 28.9755C14.4219 29.4626 14.8646 29.8611 15.4058 29.8611H17.1276C17.6688 29.8611 18.1115 29.4626 18.1115 28.9755C18.1115 28.4884 17.6688 28.0898 17.1276 28.0898Z" fill="#505050"/>
<path d="M10.2307 28.0898H8.49905C7.9579 28.0898 7.51514 28.4884 7.51514 28.9755C7.51514 29.4626 7.9579 29.8611 8.49905 29.8611H10.2209C10.762 29.8611 11.2048 29.4626 11.2048 28.9755C11.2048 28.4884 10.7719 28.0898 10.2307 28.0898Z" fill="#505050"/>
<path d="M23.9758 28.0898H22.2539C21.7128 28.0898 21.27 28.4884 21.27 28.9755C21.27 29.4626 21.7128 29.8611 22.2539 29.8611H23.9758C24.5169 29.8611 24.9597 29.4626 24.9597 28.9755C24.9597 28.4884 24.5268 28.0898 23.9758 28.0898Z" fill="#505050"/>
</g>
</g>
<defs>
<clipPath id="clip0">
<rect width="38" height="33" fill="white" transform="translate(1 4)"/>
</clipPath>
<clipPath id="clip1">
<rect width="37.7723" height="34" fill="white" transform="translate(0.824219 4)"/>
</clipPath>
</defs>
</svg>
