<svg width="42" height="42" viewBox="0 0 42 42" fill="none" xmlns="http://www.w3.org/2000/svg">
<path d="M12.6521 30.22C10.6996 30.048 8.64926 29.5 8.32221 29.5C8.22821 29.49 8.13421 29.502 8.04609 29.532C7.95796 29.564 7.87767 29.616 7.81109 29.682C7.74451 29.75 7.69359 29.83 7.66226 29.92C7.63092 30.01 7.61917 30.104 7.62896 30.2V31.6C7.62896 31.972 7.77584 32.328 8.0363 32.59C8.2948 32.852 8.6473 33 9.01546 33H11.7904C12.1586 33 12.5111 32.852 12.7716 32.59C13.0301 32.328 13.1769 31.972 13.1769 31.6V30.9C13.1808 30.744 13.1299 30.59 13.034 30.466C12.938 30.342 12.8029 30.256 12.6521 30.22ZM35.1906 29.682C35.124 29.614 35.0437 29.564 34.9556 29.532C34.8674 29.5 34.7715 29.49 34.6794 29.5C34.3524 29.5 32.3001 30.048 30.3496 30.22C30.1988 30.254 30.0636 30.342 29.9677 30.464C29.8717 30.588 29.8208 30.742 29.8247 30.898V31.598C29.8247 31.97 29.9716 32.326 30.2321 32.588C30.4906 32.852 30.8431 33 31.2093 33H33.9842C34.3524 33 34.7049 32.852 34.9654 32.59C35.2258 32.328 35.3727 31.972 35.3727 31.6V30.2C35.3825 30.106 35.3707 30.01 35.3394 29.92C35.3081 29.832 35.2571 29.75 35.1906 29.682ZM37.942 15.704C37.8128 15.574 37.6365 15.5 37.4524 15.5H35.216L32.9424 8.616C32.725 7.954 32.3471 7.356 31.8438 6.88C31.3405 6.402 30.7256 6.06 30.0578 5.882C28.5459 5.48 26.4113 5 21.4998 5C16.5883 5 14.4518 5.48 12.9439 5.882C12.2741 6.06 11.6612 6.402 11.1579 6.88C10.6546 7.358 10.2766 7.954 10.0593 8.616L7.78367 15.5H5.54725C5.36317 15.5 5.18692 15.574 5.05767 15.704C4.92646 15.836 4.854 16.014 4.854 16.2V17.868C4.854 17.998 4.88925 18.126 4.9578 18.236C5.02634 18.346 5.1223 18.436 5.23784 18.494L6.16805 18.964C6.39913 19.08 6.593 19.258 6.72813 19.48C6.86326 19.702 6.93571 19.956 6.93571 20.216V25.3C6.93571 28.814 11.8374 29.5 21.5018 29.5C31.1662 29.5 36.0679 28.812 36.0679 25.3V20.216C36.0679 19.956 36.1404 19.702 36.2755 19.48C36.4106 19.258 36.6045 19.08 36.8356 18.964L37.7658 18.494C37.8813 18.436 37.9773 18.346 38.0458 18.236C38.1144 18.126 38.1457 17.998 38.1457 17.868V16.2C38.1457 16.014 38.0732 15.836 37.942 15.704ZM14.7906 24.162C14.5008 24.444 14.111 24.598 13.7076 24.59H11.2597C10.8563 24.598 10.4666 24.444 10.1768 24.162C9.88496 23.88 9.71851 23.492 9.70871 23.086V21.898C9.71655 21.492 9.88496 21.104 10.1768 20.822C10.4666 20.54 10.8563 20.386 11.2597 20.394C11.5006 20.394 11.7375 20.448 11.953 20.554L14.4009 21.74C14.6555 21.86 14.8709 22.048 15.0236 22.288C15.1744 22.526 15.2567 22.804 15.2586 23.086C15.2488 23.492 15.0804 23.88 14.7906 24.162ZM33.291 23.086C33.2831 23.492 33.1147 23.88 32.8229 24.162C32.5331 24.444 32.1434 24.598 31.74 24.59H29.2921C28.8886 24.598 28.4989 24.444 28.2091 24.162C27.9193 23.88 27.7508 23.494 27.7411 23.086C27.743 22.802 27.8233 22.526 27.9761 22.288C28.1288 22.05 28.3442 21.86 28.5988 21.74L31.0467 20.554C31.2621 20.448 31.5011 20.394 31.74 20.394C32.1434 20.386 32.5331 20.54 32.8229 20.824C33.1128 21.106 33.2812 21.494 33.291 21.9V23.086ZM11.7924 15.5C11.6827 15.5 11.575 15.472 11.479 15.42C11.3831 15.368 11.2989 15.296 11.2343 15.206C11.1716 15.116 11.1305 15.012 11.1128 14.904C11.0952 14.796 11.107 14.684 11.1422 14.578L12.799 9.502C12.8695 9.282 12.9928 9.084 13.1593 8.924C13.3258 8.764 13.5294 8.65 13.7507 8.59C14.8396 8.294 16.7019 7.8 21.4998 7.8C26.2978 7.8 28.1582 8.294 29.2509 8.59C29.4722 8.65 29.6739 8.766 29.8404 8.924C30.0068 9.084 30.1302 9.282 30.2007 9.502L31.8575 14.58C31.8927 14.684 31.9025 14.796 31.8869 14.906C31.8712 15.016 31.8301 15.118 31.7654 15.208C31.7028 15.298 31.6186 15.372 31.5206 15.422C31.4227 15.474 31.317 15.5 31.2073 15.502H11.7924V15.5Z" fill="#505050"/>
</svg>
