<svg width="43" height="42" viewBox="0 0 43 42" fill="none" xmlns="http://www.w3.org/2000/svg">
<path d="M42.315 32.0625C42.17 31.9275 41.98 31.855 41.7775 31.855H0.805C0.7375 31.855 0.6725 31.865 0.6075 31.88L0.5425 31.8075L0 32.315L0.07 32.3875C0.055 32.445 0.045 32.505 0.0425 32.5675C0.0425 32.7125 0.1025 32.855 0.225 33.005C0.3425 33.145 0.51 33.28 0.725 33.41C1.125 33.6575 1.68 33.8875 2.3775 34.105C3.605 34.4875 5.1425 34.75 6.1125 34.75H36.47C37.445 34.75 38.98 34.4875 40.205 34.1075C40.8975 33.8925 41.455 33.6575 41.855 33.415C42.0775 33.28 42.245 33.1425 42.36 33.005C42.48 32.8575 42.54 32.715 42.54 32.56C42.5375 32.37 42.455 32.195 42.315 32.0625ZM17.5 30.41H23.57C26.415 30.41 28.5625 29.7725 30.1425 28.4675C31.865 27.04 32.89 24.835 33.27 21.7275H33.9C36.2475 21.7275 37.955 21.115 39.12 19.8525C40.4025 18.4625 41.025 16.2975 41.025 13.235V8.6975C41.025 8.31 40.8675 7.945 40.58 7.675C40.3 7.405 39.9075 7.25 39.5075 7.25H9.1525C8.7525 7.25 8.36 7.405 8.0775 7.6725C7.7925 7.945 7.6325 8.31 7.6325 8.6975V18.83C7.6325 23.005 8.4975 25.9575 10.2725 27.8525C11.885 29.5725 14.25 30.41 17.5 30.41ZM33.4375 10.5075C33.4375 10.41 33.4775 10.32 33.55 10.25C33.62 10.1825 33.715 10.145 33.815 10.145H37.61C37.71 10.145 37.8075 10.1825 37.8775 10.25C37.9475 10.3175 37.9875 10.41 37.9875 10.5075V13.2325C37.9875 15.73 37.555 17.3325 36.665 18.13C35.8825 18.8275 34.855 18.8275 33.9525 18.8275H33.815C33.715 18.8275 33.62 18.79 33.5475 18.72C33.4775 18.6525 33.4375 18.5625 33.4375 18.465V10.5075Z" fill="#505050"/>
</svg>
