<svg width="42" height="42" viewBox="0 0 42 42" fill="none" xmlns="http://www.w3.org/2000/svg">
<path fill-rule="evenodd" clip-rule="evenodd" d="M37.7868 27.4498H3.74259C3.69991 27.4498 3.6665 27.4846 3.6665 27.5291V29.0542C3.6665 29.0987 3.69991 29.1334 3.74259 29.1334H17.6138L13.0173 37.4241C12.8057 37.8068 12.9319 38.2978 13.2993 38.5181L13.3105 38.5259C13.6779 38.7462 14.1492 38.6148 14.3608 38.2321L19.4045 29.1334H19.9148V37.7933C19.9148 38.2572 20.2767 38.6341 20.722 38.6341C21.1674 38.6341 21.5292 38.2572 21.5292 37.7933V29.1334H22.1249L27.1686 38.2321C27.3802 38.6148 27.8515 38.7462 28.219 38.5259L28.2301 38.5181C28.5975 38.2978 28.7237 37.8068 28.5121 37.4241L23.9156 29.1334H37.7868C37.8295 29.1334 37.8629 29.0987 37.8629 29.0542V27.5291C37.8629 27.4846 37.8295 27.4498 37.7868 27.4498ZM4.42733 26.984C4.44589 26.9646 37.078 26.9704 37.1021 26.984V7.55928C37.1021 6.97552 36.6456 6.5 36.0852 6.5H5.44424C4.88383 6.5 4.42733 6.97552 4.42733 7.55928V26.984Z" fill="#505050"/>
</svg>
