<svg width="42" height="42" viewBox="0 0 42 42" fill="none" xmlns="http://www.w3.org/2000/svg">
<path d="M31.809 17.9107C31.2553 17.2938 30.5036 16.9296 29.632 16.8854H28.9141V13.6283C28.9141 10.6197 28.3288 8.78591 26.8866 7.3016C25.4444 5.81729 23.6695 5.21094 20.7535 5.21094H19.2482C16.3301 5.21094 14.5531 5.81729 13.113 7.3016C11.673 8.78591 11.0855 10.6176 11.0855 13.6283V16.8854H10.3108C9.49807 16.9296 8.74434 17.2938 8.19062 17.9107C7.63059 18.536 7.34004 19.3508 7.36952 20.2014V33.4717C7.33793 34.3223 7.62848 35.1371 8.19062 35.7645C8.74224 36.3814 9.49597 36.7456 10.3655 36.7898L29.6889 36.7877C30.5036 36.7435 31.2553 36.3793 31.8069 35.7645C32.3627 35.1455 32.6617 34.3097 32.6301 33.4717V20.2056C32.6638 19.3655 32.3627 18.5297 31.809 17.9107ZM20.7493 8.27219C22.6063 8.27219 23.7369 8.65748 24.6527 9.6028C25.5686 10.5481 25.9434 11.7145 25.9434 13.6283V16.8854H14.0563V13.6283C14.0563 11.7145 14.431 10.5481 15.3469 9.6028C16.2627 8.65748 17.3954 8.27219 19.2503 8.27219H20.7493Z" fill="#505050"/>
</svg>
