<svg width="42" height="42" viewBox="0 0 42 42" fill="none" xmlns="http://www.w3.org/2000/svg">
<path fill-rule="evenodd" clip-rule="evenodd" d="M29.9061 37.625H28.5623C28.206 37.625 27.8643 37.4835 27.6122 37.2315C27.3602 36.9796 27.2186 36.638 27.2186 36.2816V24.8694C27.2203 24.6791 27.1806 24.4908 27.1024 24.3174C27.0242 24.144 26.9093 23.9895 26.7656 23.8648C25.9996 23.2104 24.5312 21.4381 24.5312 17.4686C24.5312 9.42752 27.855 5.3397 30.6134 5.37523C30.7861 5.38218 30.9494 5.45628 31.0683 5.58175C31.1871 5.70721 31.2523 5.87412 31.25 6.04693V36.2816C31.25 36.4581 31.2152 36.6328 31.1477 36.7956C31.0801 36.9587 30.9811 37.1068 30.8564 37.2315C30.7315 37.3562 30.5835 37.4553 30.4205 37.5227C30.2574 37.5902 30.0825 37.625 29.9061 37.625ZM16.4687 24.3346V36.2816C16.4687 36.638 16.3271 36.9796 16.0751 37.2315C15.8231 37.4835 15.4813 37.625 15.125 37.625H13.7812C13.4249 37.625 13.0831 37.4835 12.8311 37.2315C12.5791 36.9796 12.4375 36.638 12.4375 36.2816V24.3346C12.4375 21.1807 9.75 21.7655 9.75 17.4739C9.75 13.9252 10.2756 7.19541 10.3971 5.68791C10.4041 5.60429 10.4425 5.52641 10.5045 5.46994C10.5666 5.41346 10.6478 5.38257 10.7317 5.38349H11.4371C11.5249 5.38347 11.6092 5.41778 11.672 5.47909C11.7347 5.5404 11.771 5.62383 11.7731 5.71155C11.7731 5.71155 11.9928 15.0777 12.0015 15.454C12.0055 15.6341 12.0796 15.8056 12.2079 15.9321C12.3363 16.0586 12.5088 16.1301 12.6891 16.1315C12.8693 16.1329 13.043 16.0641 13.1733 15.9397C13.3036 15.8152 13.3803 15.6449 13.3872 15.4649C13.4015 15.0929 13.7684 5.70631 13.7684 5.70631C13.7718 5.61951 13.8086 5.5374 13.8713 5.47721C13.9339 5.41702 14.0174 5.38343 14.1043 5.38349H14.8019C14.8888 5.38343 14.9723 5.41702 15.0349 5.47721C15.0976 5.5374 15.1344 5.61951 15.1378 5.70631C15.1378 5.70631 15.5046 15.0929 15.519 15.4649C15.5259 15.6449 15.6026 15.8152 15.7329 15.9397C15.8632 16.0641 16.0369 16.1329 16.2171 16.1315C16.3974 16.1301 16.5699 16.0586 16.6983 15.9321C16.8266 15.8056 16.9007 15.6341 16.9047 15.454C16.9135 15.0778 17.1331 5.71155 17.1331 5.71155C17.1352 5.62383 17.1714 5.5404 17.2342 5.47909C17.297 5.41778 17.3813 5.38347 17.4691 5.38349H18.1745C18.2585 5.38258 18.3397 5.4135 18.4017 5.47004C18.4638 5.52657 18.5021 5.60451 18.509 5.68817C18.6306 7.19541 19.1562 13.9252 19.1562 17.4741C19.1562 21.7662 16.4687 21.1763 16.4687 24.3346Z" fill="#505050"/>
</svg>
