<svg width="40" height="40" viewBox="0 0 40 40" fill="none" xmlns="http://www.w3.org/2000/svg">
<path d="M19.997 2C12.2441 2 5.93652 7.67759 5.93652 14.6562C5.93652 17.0141 6.66212 19.3152 8.03536 21.3115L19.1966 37.5014C19.4104 37.8116 19.7871 38 20.1922 38C20.1953 38 20.1984 38 20.2015 38C20.6101 37.9971 20.9876 37.8028 21.1975 37.4873L32.0742 21.1405C33.3717 19.1863 34.0575 16.9441 34.0575 14.6562C34.0575 7.67759 27.7499 2 19.997 2ZM30.0632 20.0575L20.1745 34.9193L10.0271 20.2001C8.88407 18.5385 8.26431 16.6215 8.26431 14.6562C8.26431 8.8407 13.5362 4.09531 19.997 4.09531C26.4578 4.09531 31.7219 8.8407 31.7219 14.6562C31.7219 16.5632 31.143 18.4312 30.0632 20.0575Z" fill="#505050"/>
<path d="M19.997 8.32812C16.1206 8.32812 12.9668 11.1669 12.9668 14.6562C12.9668 18.1233 16.0692 20.9844 19.997 20.9844C23.9733 20.9844 27.0273 18.0852 27.0273 14.6562C27.0273 11.1669 23.8735 8.32812 19.997 8.32812ZM19.997 18.8891C17.3992 18.8891 15.2946 16.9883 15.2946 14.6562C15.2946 12.33 17.4127 10.4234 19.997 10.4234C22.5813 10.4234 24.6917 12.33 24.6917 14.6562C24.6917 16.9543 22.636 18.8891 19.997 18.8891Z" fill="#505050"/>
</svg>
