<svg width="42" height="42" viewBox="0 0 42 42" fill="none" xmlns="http://www.w3.org/2000/svg">
<path d="M36.625 31.6111H36.3683C36.2413 31.6111 36.1168 31.647 36.0088 31.7148C35.901 31.7828 35.8141 31.8796 35.758 31.9948L35.4504 32.6159C35.3932 32.7313 35.3054 32.8283 35.1968 32.8961C35.0881 32.9639 34.9631 33 34.8353 33H32.9341C32.8063 33 32.6813 32.9639 32.5726 32.8961C32.4641 32.8283 32.3763 32.7313 32.3191 32.6159L32.0112 31.9948C31.9515 31.8789 31.8614 31.7817 31.7507 31.7141C31.64 31.6465 31.5131 31.6107 31.3837 31.6111H11.6172C11.4902 31.6111 11.3658 31.6472 11.2579 31.715C11.1501 31.7828 11.0632 31.8796 11.0071 31.9948L10.6995 32.6159C10.6422 32.7313 10.5544 32.8283 10.4458 32.8961C10.3371 32.9639 10.2119 32.9998 10.0842 33H8.18322C8.05551 33 7.93035 32.9639 7.82172 32.8961C7.7131 32.8283 7.62528 32.7313 7.56813 32.6159L7.2605 31.9948C7.20073 31.8789 7.11057 31.7819 6.99987 31.7141C6.88916 31.6465 6.76216 31.6107 6.63277 31.6111H6.375C6.01033 31.6111 5.66059 31.4648 5.40273 31.2043C5.14487 30.9439 5 30.5906 5 30.2222V9.38889C5 9.02054 5.14487 8.66726 5.40273 8.4068C5.66059 8.14633 6.01033 8 6.375 8H36.625C36.9897 8 37.3395 8.14633 37.5972 8.4068C37.8552 8.66726 38 9.02054 38 9.38889V30.2222C38 30.5906 37.8552 30.9439 37.5972 31.2043C37.3395 31.4648 36.9897 31.6111 36.625 31.6111ZM30.6667 13.787C30.6667 13.2345 30.4494 12.7046 30.0626 12.3139C29.6758 11.9232 29.1512 11.7037 28.6042 11.7037H10.7292C10.1822 11.7037 9.65755 11.9232 9.27075 12.3139C8.88397 12.7046 8.66667 13.2345 8.66667 13.787V26.3796C8.66667 26.9322 8.88397 27.462 9.27075 27.8528C9.65755 28.2435 10.1822 28.463 10.7292 28.463H28.6042C29.1512 28.463 29.6758 28.2435 30.0626 27.8528C30.4494 27.462 30.6667 26.9322 30.6667 26.3796V13.787ZM34.2417 13.3704C33.7645 13.3703 33.3019 13.5375 32.9328 13.8433C32.564 14.1491 32.3113 14.5747 32.2184 15.0475C32.1253 15.5203 32.1973 16.0111 32.4223 16.4363C32.6472 16.8615 33.0111 17.1947 33.4521 17.3793C33.8932 17.5637 34.3838 17.588 34.8404 17.448C35.2971 17.3081 35.6917 17.0125 35.9568 16.6116C36.2219 16.2108 36.3412 15.7295 36.2945 15.2497C36.2477 14.7699 36.0376 14.3214 35.7001 13.9806C35.3133 13.5899 34.7887 13.3704 34.2417 13.3704ZM26.8601 17.4835C26.3675 16.9008 25.7541 16.4348 25.0633 16.1185C24.3723 15.8022 23.621 15.6434 22.8625 15.6533C20.3228 15.6406 18.1109 17.9396 16.0909 17.9396H16.0627C15.5364 17.952 15.0136 17.8498 14.5299 17.6398C14.0463 17.4296 13.6131 17.1167 13.2601 16.7222C13.1375 16.5686 12.9608 16.469 12.767 16.4443C12.5732 16.4195 12.3775 16.4716 12.2209 16.5895C12.0643 16.7074 11.9591 16.882 11.9272 17.0766C11.8954 17.2713 11.9394 17.4707 12.0501 17.6333C12.5425 18.2159 13.1558 18.6819 13.8465 18.9981C14.5373 19.3144 15.2884 19.4733 16.0468 19.4635H16.0917C18.5896 19.4635 20.8065 17.1767 22.8183 17.1767H22.8468C23.3738 17.1645 23.8973 17.2674 24.3815 17.4783C24.8654 17.6893 25.2989 18.0033 25.6518 18.3989C25.772 18.5607 25.9512 18.6676 26.1495 18.6961C26.3479 18.7246 26.5492 18.6722 26.7094 18.5507C26.8697 18.4293 26.9754 18.2483 27.0037 18.048C27.0319 17.8476 26.98 17.6443 26.8598 17.4824L26.8601 17.4835ZM26.8601 22.8309C26.3677 22.2481 25.7541 21.782 25.0633 21.4657C24.3725 21.1494 23.621 20.9906 22.8625 21.0006C20.3228 20.9878 18.1109 23.287 16.0909 23.287H16.0627C15.5363 23.2994 15.0135 23.197 14.5299 22.9869C14.0462 22.7767 13.6131 22.4637 13.2601 22.0691C13.1376 21.915 12.9608 21.815 12.7668 21.7902C12.5728 21.7652 12.3768 21.8172 12.22 21.9354C12.0632 22.0533 11.9579 22.2283 11.9262 22.4231C11.8945 22.6181 11.9389 22.8178 12.0501 22.9804C12.5425 23.563 13.1558 24.0289 13.8465 24.3452C14.5373 24.6615 15.2884 24.8204 16.0468 24.8106H16.0917C18.5896 24.8106 20.8065 22.5239 22.8183 22.5239H22.8468C23.3738 22.5117 23.8973 22.6146 24.3815 22.8256C24.8654 23.0365 25.2989 23.3506 25.6518 23.7461C25.7728 23.9057 25.9511 24.0106 26.1484 24.038C26.3455 24.0654 26.5453 24.0131 26.7045 23.8924C26.8636 23.7719 26.9692 23.5926 26.9984 23.3937C27.0275 23.1948 26.9776 22.9926 26.8598 22.8306L26.8601 22.8309Z" fill="#505050"/>
</svg>
