<svg width="42" height="42" viewBox="0 0 42 42" fill="none" xmlns="http://www.w3.org/2000/svg">
<path fill-rule="evenodd" clip-rule="evenodd" d="M38.9823 21.8982H36.1852C35.8141 21.8982 35.4584 21.7508 35.1961 21.4887C34.9338 21.2264 34.7864 20.8705 34.7864 20.4997C34.7864 20.1288 34.9338 19.7729 35.1961 19.5106C35.4584 19.2485 35.8141 19.1011 36.1852 19.1011H38.9823C39.3534 19.1011 39.7091 19.2485 39.9714 19.5106C40.2337 19.7729 40.3811 20.1288 40.3811 20.4997C40.3811 20.8705 40.2337 21.2264 39.9714 21.4887C39.7091 21.7508 39.3534 21.8982 38.9823 21.8982ZM8.21266 20.4997C8.21266 20.8705 8.0653 21.2264 7.80301 21.4887C7.54071 21.7508 7.18497 21.8982 6.81404 21.8982H4.01678C3.64585 21.8982 3.29011 21.7508 3.02781 21.4887C2.76552 21.2264 2.61816 20.8705 2.61816 20.4997C2.61816 20.1288 2.76552 19.7729 3.02781 19.5106C3.29011 19.2485 3.64585 19.1011 4.01678 19.1011H6.81404C6.99771 19.1011 7.17959 19.1373 7.34928 19.2074C7.51898 19.2777 7.67316 19.3808 7.80305 19.5106C7.93293 19.6405 8.03596 19.7947 8.10625 19.9643C8.17655 20.134 8.21273 20.3159 8.21273 20.4997H8.21266ZM34.9413 33.9413C34.679 34.2037 34.3233 34.351 33.9522 34.351C33.5814 34.351 33.2257 34.2037 32.9634 33.9413L30.9852 31.9634C30.7229 31.7011 30.5756 31.3452 30.5756 30.9743C30.5756 30.6035 30.7229 30.2476 30.9852 29.9853C31.2476 29.7232 31.6034 29.5758 31.9743 29.5758C32.3452 29.5758 32.7011 29.7232 32.9632 29.9855L34.9413 31.9634C35.0711 32.0932 35.1742 32.2475 35.2445 32.4172C35.3148 32.5868 35.351 32.7687 35.351 32.9523C35.351 33.136 35.3148 33.3179 35.2445 33.4876C35.1742 33.6573 35.0711 33.8114 34.9413 33.9413ZM32.9817 7.03916C33.1117 6.90928 33.2658 6.80625 33.4355 6.73598C33.6052 6.66568 33.7871 6.6295 33.9708 6.6295C34.1546 6.6295 34.3364 6.66568 34.5061 6.73598C34.6758 6.80625 34.8299 6.90928 34.9599 7.03916C35.0896 7.16905 35.1927 7.32323 35.2631 7.49291C35.3332 7.66262 35.3694 7.84449 35.3694 8.02817C35.3694 8.21184 35.3332 8.39372 35.2631 8.56341C35.1927 8.73309 35.0896 8.88729 34.9599 9.01716L32.9817 10.9951C32.7189 11.2542 32.3641 11.3988 31.9949 11.3974C31.6257 11.3961 31.2721 11.2488 31.0111 10.9878C30.7501 10.7267 30.6029 10.3731 30.6016 10.004C30.6001 9.63482 30.7449 9.28011 31.004 9.01716L32.9817 7.03916ZM20.1005 37.9825V35.1852C20.1005 34.8143 20.2479 34.4585 20.5102 34.1962C20.7725 33.9338 21.1282 33.7867 21.4991 33.7867C21.8701 33.7867 22.2258 33.9338 22.4881 34.1962C22.7504 34.4585 22.8976 34.8143 22.8976 35.1852V37.9825C22.8976 38.3534 22.7504 38.7091 22.4881 38.9714C22.2258 39.2337 21.8701 39.3811 21.4991 39.3811C21.1282 39.3811 20.7725 39.2337 20.5102 38.9714C20.2479 38.7091 20.1005 38.3534 20.1005 37.9825ZM12.014 29.9853C12.2763 30.2476 12.4236 30.6033 12.4236 30.9743C12.4236 31.3452 12.2763 31.7009 12.014 31.9632L10.036 33.9633C9.77281 34.2215 9.41838 34.3653 9.04973 34.3634C8.68111 34.3617 8.32808 34.2145 8.06744 33.9537C7.8068 33.6931 7.65963 33.34 7.65792 32.9714C7.6562 32.6028 7.8001 32.2484 8.05831 31.9852L10.0363 29.9853C10.2986 29.723 10.6543 29.5758 11.0252 29.5758C11.396 29.5758 11.7517 29.7232 12.014 29.9853ZM8.03916 7.03929C8.16903 6.90941 8.32321 6.80638 8.49291 6.73609C8.6626 6.66581 8.84448 6.62963 9.02815 6.62963C9.21183 6.62963 9.3937 6.66581 9.56341 6.73609C9.7331 6.80638 9.88728 6.90941 10.0172 7.03929L11.995 9.01723C12.1249 9.1471 12.228 9.30128 12.2983 9.47096C12.3686 9.64067 12.4048 9.82255 12.4048 10.0062C12.4048 10.1899 12.3686 10.3718 12.2984 10.5415C12.2281 10.7112 12.1251 10.8654 11.9952 10.9953C11.8653 11.1252 11.7111 11.2282 11.5415 11.2985C11.3718 11.3688 11.1899 11.405 11.0062 11.405C10.8225 11.405 10.6407 11.3689 10.4709 11.2986C10.3013 11.2283 10.1471 11.1253 10.0172 10.9955L8.03916 9.01751C7.90925 8.88763 7.8062 8.73343 7.73588 8.56373C7.66557 8.394 7.62938 8.21211 7.62938 8.02841C7.62938 7.8447 7.66557 7.66281 7.73588 7.49308C7.8062 7.32338 7.90925 7.16918 8.03916 7.03929ZM20.1011 5.81404V3.01678C20.1011 2.64585 20.2484 2.29011 20.5107 2.02781C20.7731 1.76552 21.1287 1.61816 21.4996 1.61816C21.8705 1.61816 22.2264 1.76552 22.4887 2.02781C22.751 2.29011 22.8982 2.64585 22.8982 3.01678V5.81404C22.8982 6.18497 22.751 6.54071 22.4887 6.80301C22.2264 7.0653 21.8705 7.21266 21.4996 7.21266C21.1287 7.21266 20.7731 7.0653 20.5107 6.80301C20.2484 6.54071 20.1011 6.18497 20.1011 5.81404ZM32.6887 20.4997C32.6887 22.7125 32.0324 24.8759 30.803 26.7158C29.5736 28.5558 27.8261 29.99 25.7816 30.8369C23.7371 31.6837 21.4872 31.9053 19.3167 31.4737C17.1463 31.0418 15.1527 29.9763 13.5878 28.4114C12.023 26.8465 10.9574 24.8528 10.5257 22.6825C10.0939 20.512 10.3155 18.2622 11.1624 16.2177C12.0092 14.1732 13.4434 12.4257 15.2834 11.1963C17.1234 9.96683 19.2867 9.31059 21.4996 9.31059C22.9691 9.31061 24.4239 9.60006 25.7814 10.1624C27.1389 10.7247 28.3722 11.5489 29.4112 12.5879C30.4501 13.6269 31.2744 14.8604 31.8365 16.2179C32.3988 17.5754 32.6881 19.0304 32.6881 20.4997H32.6887ZM21.4996 12.1074C19.8399 12.1074 18.2172 12.5996 16.8372 13.5218C15.4572 14.4439 14.3815 15.7546 13.7463 17.288C13.1111 18.8215 12.9449 20.5088 13.2687 22.1367C13.5925 23.7646 14.3918 25.2601 15.5655 26.4337C16.7391 27.6074 18.2345 28.4067 19.8624 28.7305C21.4902 29.0543 23.1776 28.8882 24.7111 28.253C26.2445 27.6177 27.5553 26.5422 28.4774 25.162C29.3996 23.782 29.8917 22.1596 29.8917 20.4997C29.8919 19.3975 29.6748 18.3063 29.2531 17.288C28.8314 16.2698 28.2132 15.3446 27.434 14.5653C26.6547 13.786 25.7294 13.1678 24.7113 12.7461C23.693 12.3243 22.6017 12.1073 21.4996 12.1073V12.1074Z" fill="#505050"/>
</svg>
