<svg width="42" height="42" viewBox="0 0 42 42" fill="none" xmlns="http://www.w3.org/2000/svg">
<path fill-rule="evenodd" clip-rule="evenodd" d="M35.15 36.2563C35.0631 36.5257 34.8913 36.76 34.6604 36.9239C34.4297 37.0878 34.152 37.1728 33.8691 37.1661C31.3459 37.1144 24.3383 36.1969 16.5497 28.4081C8.76005 20.6184 7.84339 13.6096 7.79185 11.0872C7.78538 10.8043 7.87045 10.5269 8.03438 10.2963C8.19832 10.0657 8.43236 9.89419 8.70165 9.80733L14.68 7.85613C15.0024 7.75318 15.3515 7.77379 15.6596 7.91395C15.9676 8.05412 16.2126 8.30382 16.3468 8.61451L18.7336 14.143C18.8416 14.3881 18.8733 14.66 18.8245 14.9234C18.7758 15.1867 18.6488 15.4293 18.4602 15.6195L15.6581 18.4212C15.5681 18.5104 15.5058 18.6238 15.4786 18.7475C15.4514 18.8713 15.4605 19.0003 15.5048 19.1191C16.3436 21.503 17.7246 23.6595 19.5389 25.4188C21.298 27.2329 23.4541 28.6137 25.8376 29.4528C25.9566 29.4971 26.0857 29.5063 26.2097 29.4791C26.3337 29.4518 26.4472 29.3894 26.5366 29.2993L29.3377 26.4983C29.528 26.3094 29.7711 26.1824 30.0348 26.1336C30.2984 26.0848 30.5708 26.1166 30.8162 26.2248L36.3436 28.6113C36.6542 28.7453 36.9037 28.9899 37.0439 29.2975C37.1841 29.6054 37.2049 29.9542 37.1021 30.2763L35.15 36.2563Z" fill="#505050"/>
</svg>
