<svg width="42" height="42" viewBox="0 0 42 42" fill="none" xmlns="http://www.w3.org/2000/svg">
<path fill-rule="evenodd" clip-rule="evenodd" d="M36.1774 14.0936L33.144 15.821L35.4254 17.1164C35.7652 17.3 36.0246 17.6 36.154 17.9596C36.2836 18.3192 36.2744 18.713 36.128 19.0662C36.042 19.2578 35.916 19.4296 35.7582 19.5702C35.6006 19.7108 35.4146 19.8174 35.2124 19.8828C35.0102 19.9484 34.7964 19.9714 34.5846 19.9504C34.3728 19.9294 34.1678 19.865 33.983 19.7612L30.8618 17.9892C30.6296 17.8574 30.3662 17.788 30.098 17.7882C29.83 17.7884 29.5668 17.858 29.3348 17.9902L24.049 21.0002L29.3346 24.0102C29.5666 24.1424 29.8298 24.212 30.0978 24.2122C30.366 24.2124 30.6292 24.143 30.8616 24.0112L33.9058 22.2826C34.2226 22.0938 34.5966 22.0206 34.9626 22.0758C35.3286 22.131 35.6632 22.3112 35.9078 22.5846C36.0498 22.7516 36.153 22.947 36.2102 23.1572C36.2674 23.3676 36.2774 23.5876 36.2392 23.802C36.2012 24.0164 36.1162 24.2202 35.9898 24.3988C35.8636 24.5776 35.6992 24.727 35.5082 24.8368L33.144 26.1794L36.1774 27.9066C36.518 28.091 36.7778 28.3918 36.908 28.7522C37.038 29.1126 37.0292 29.5074 36.883 29.8618C36.7964 30.0534 36.6698 30.225 36.5116 30.3654C36.3532 30.5058 36.1668 30.6118 35.964 30.6766C35.7614 30.7414 35.5472 30.7634 35.3352 30.7416C35.1234 30.7196 34.9184 30.6538 34.734 30.549L31.6848 28.8122V31.425C31.6926 31.7892 31.57 32.1444 31.3384 32.4286C31.1068 32.7128 30.7808 32.9076 30.4178 32.979C30.2 33.0164 29.9764 33.0066 29.7626 32.9504C29.549 32.894 29.3504 32.7924 29.1806 32.6528C29.0108 32.5132 28.874 32.339 28.7798 32.142C28.6854 31.945 28.636 31.7302 28.6346 31.5126V27.9398C28.6346 27.6768 28.5642 27.4184 28.4306 27.1906C28.2972 26.9628 28.105 26.7734 27.8738 26.6418L22.5338 23.6008V29.7144C22.5338 29.9778 22.6042 30.2364 22.7382 30.4644C22.872 30.6924 23.0646 30.8818 23.2964 31.0134L26.2742 32.7044C26.614 32.888 26.8734 33.188 27.0028 33.5476C27.1324 33.9072 27.123 34.301 26.9768 34.6544C26.8906 34.8458 26.7646 35.0176 26.607 35.1582C26.4492 35.2988 26.2632 35.4054 26.0612 35.4708C25.859 35.5364 25.645 35.5594 25.4332 35.5384C25.2216 35.5176 25.0166 35.453 24.8316 35.3492L22.5332 34.0442V37.4192C22.5414 37.7844 22.4186 38.1408 22.1866 38.426C21.9546 38.7112 21.628 38.9068 21.264 38.9788C21.0452 39.0154 20.821 39.0046 20.607 38.947C20.3928 38.8896 20.1942 38.787 20.0246 38.6462C19.855 38.5054 19.7186 38.3298 19.625 38.1318C19.5314 37.9338 19.4828 37.7182 19.4826 37.4998V34.0444L17.2612 35.3056C16.9445 35.4944 16.5704 35.5676 16.2044 35.5126C15.8384 35.4574 15.5038 35.2772 15.2591 35.0038C15.1172 34.8368 15.014 34.6412 14.9568 34.431C14.8995 34.2208 14.8896 34.0006 14.9276 33.7862C14.9657 33.5718 15.0508 33.368 15.1771 33.1894C15.3034 33.0106 15.4678 32.8612 15.6588 32.7514L18.72 31.0134C18.9518 30.8818 19.1444 30.6924 19.2782 30.4644C19.412 30.2364 19.4826 29.9778 19.4826 29.7144V23.6008L14.1423 26.6418C13.911 26.7734 13.7189 26.9628 13.5853 27.1906C13.4518 27.4184 13.3815 27.6768 13.3814 27.9398V31.425C13.3893 31.7892 13.2667 32.1444 13.035 32.4286C12.8034 32.7128 12.4775 32.9076 12.1145 32.979C11.8966 33.0164 11.673 33.0066 11.4593 32.9504C11.2456 32.894 11.047 32.7924 10.8773 32.6528C10.7075 32.5132 10.5707 32.339 10.4764 32.142C10.3822 31.945 10.3326 31.7302 10.3313 31.5126V28.8126L7.35244 30.5086C7.03604 30.698 6.66196 30.7718 6.29582 30.717C5.92968 30.662 5.59486 30.4822 5.35008 30.2086C5.20878 30.0404 5.10642 29.8438 5.05008 29.6328C4.99376 29.4218 4.98482 29.201 5.0239 28.9862C5.06296 28.7714 5.14912 28.5676 5.27636 28.3888C5.4036 28.21 5.56886 28.0606 5.76066 27.9512L8.87152 26.1796L6.5904 24.884C6.25062 24.7004 5.9913 24.4002 5.86178 24.0408C5.73226 23.6812 5.7416 23.2874 5.888 22.934C5.97408 22.7426 6.10006 22.5708 6.25776 22.4302C6.41548 22.2896 6.60144 22.183 6.8036 22.1176C7.00578 22.052 7.21966 22.029 7.43144 22.05C7.6432 22.0708 7.84816 22.1354 8.03304 22.2392L11.1541 24.0114C11.3863 24.1432 11.6497 24.2124 11.9177 24.2122C12.1857 24.2122 12.449 24.1424 12.681 24.0104L17.9664 21.0002L12.6806 17.9902C12.4486 17.858 12.1853 17.7884 11.9173 17.7882C11.6493 17.788 11.3859 17.8574 11.1537 17.9892L8.1097 19.7178C7.79302 19.9066 7.41894 19.9798 7.05294 19.9246C6.68694 19.8694 6.3523 19.6892 6.10764 19.4158C5.96572 19.2488 5.86254 19.0534 5.80528 18.843C5.74802 18.6328 5.73808 18.4128 5.77614 18.1984C5.8142 17.9838 5.89934 17.7802 6.02562 17.6014C6.15192 17.4228 6.3163 17.2732 6.50732 17.1636L8.87152 15.821L5.83816 14.0936C5.49766 13.9093 5.2377 13.6084 5.10762 13.248C4.97754 12.8876 4.98636 12.4928 5.13244 12.1383C5.21902 11.9467 5.3456 11.7752 5.50392 11.6349C5.66224 11.4945 5.84878 11.3885 6.05144 11.3237C6.25408 11.259 6.46832 11.2368 6.68022 11.2588C6.89212 11.2808 7.09694 11.3464 7.28142 11.4514L10.3312 13.1881V10.5755C10.3233 10.2112 10.446 9.85588 10.6776 9.57172C10.9093 9.28754 11.2351 9.09268 11.5981 9.02128C11.8161 8.9839 12.0396 8.99374 12.2533 9.05008C12.467 9.10642 12.6656 9.20794 12.8354 9.34754C13.0051 9.48714 13.1419 9.66148 13.2362 9.85842C13.3305 10.0554 13.38 10.2702 13.3813 10.4879V14.0606C13.3814 14.3236 13.4517 14.582 13.5853 14.8099C13.7188 15.0377 13.9109 15.227 14.1422 15.3587L19.4824 18.3996V12.286C19.4824 12.0227 19.4118 11.764 19.278 11.5359C19.144 11.3079 18.9516 11.1186 18.7198 10.987L15.7415 9.29598C15.4017 9.11238 15.1424 8.81224 15.0129 8.4527C14.8833 8.09316 14.8926 7.69928 15.039 7.34604C15.125 7.15448 15.251 6.98282 15.4087 6.84216C15.5664 6.70152 15.7524 6.595 15.9546 6.5295C16.1567 6.464 16.3706 6.44098 16.5824 6.46194C16.7941 6.48288 16.9991 6.54732 17.184 6.6511L19.4826 7.95608V4.58116C19.4744 4.21588 19.597 3.85938 19.829 3.57416C20.061 3.28892 20.3876 3.09318 20.7516 3.0212C20.9704 2.98464 21.1946 2.99546 21.4088 3.05294C21.6228 3.11042 21.8216 3.21318 21.9912 3.35402C22.1608 3.49486 22.2972 3.67042 22.3908 3.86846C22.4844 4.06648 22.5328 4.28222 22.533 4.50062V7.956L24.7544 6.69484C25.071 6.50596 25.445 6.4327 25.811 6.48788C26.177 6.54306 26.5118 6.72318 26.7564 6.9967C26.8984 7.16368 27.0014 7.35912 27.0588 7.56938C27.116 7.77964 27.126 7.99968 27.088 8.21412C27.0498 8.42856 26.9648 8.63226 26.8384 8.81098C26.7122 8.98972 26.5478 9.13918 26.3568 9.24896L23.2958 10.987C23.0638 11.1186 22.8714 11.3079 22.7374 11.5359C22.6036 11.7639 22.533 12.0227 22.533 12.286V18.3996L27.873 15.3586C28.1044 15.2269 28.2964 15.0376 28.43 14.8098C28.5636 14.582 28.6338 14.3236 28.634 14.0605V10.5755C28.626 10.2112 28.7488 9.8559 28.9804 9.57174C29.212 9.28756 29.5378 9.0927 29.9008 9.02128C30.1188 8.98378 30.3424 8.99352 30.5562 9.0498C30.77 9.10608 30.9688 9.20758 31.1386 9.34718C31.3084 9.4868 31.4452 9.66116 31.5396 9.85816C31.6338 10.0551 31.6834 10.27 31.6848 10.4878V13.1877L34.7346 11.451C34.919 11.346 35.1238 11.2804 35.3358 11.2584C35.5476 11.2364 35.7618 11.2585 35.9646 11.3233C36.1672 11.3881 36.3538 11.4941 36.512 11.6344C36.6704 11.7748 36.797 11.9463 36.8836 12.138C37.0298 12.4925 37.0386 12.8875 36.9084 13.248C36.7782 13.6085 36.5182 13.9094 36.1774 14.0936Z" fill="#505050"/>
</svg>
