<svg width="40" height="40" viewBox="0 0 40 40" fill="none" xmlns="http://www.w3.org/2000/svg">
<path d="M33.0046 37C32.2137 37 31.5725 36.4229 31.5725 35.7109C31.5725 30.6643 27.0113 26.5586 21.4047 26.5586H19.2566C13.65 26.5586 9.08878 30.6643 9.08878 35.7109C9.08878 36.4229 8.44764 37 7.65669 37C6.86575 37 6.22461 36.4229 6.22461 35.7109C6.22461 29.2427 12.0707 23.9805 19.2566 23.9805H21.4047C28.5906 23.9805 34.4367 29.2427 34.4367 35.7109C34.4367 36.4229 33.7955 37 33.0046 37Z" fill="#505050"/>
<path d="M20.1876 21.4023C14.8574 21.4023 10.521 17.499 10.521 12.7012C10.521 7.90335 14.8574 4 20.1876 4C25.5177 4 29.8541 7.90335 29.8541 12.7012C29.8541 17.499 25.5177 21.4023 20.1876 21.4023ZM20.1876 6.57812C16.4367 6.57812 13.3852 9.32492 13.3852 12.7012C13.3852 16.0774 16.4367 18.8242 20.1876 18.8242C23.9384 18.8242 26.99 16.0774 26.99 12.7012C26.99 9.32492 23.9384 6.57812 20.1876 6.57812Z" fill="#505050"/>
</svg>
