<svg width="42" height="42" viewBox="0 0 42 42" fill="none" xmlns="http://www.w3.org/2000/svg">
<path d="M28.4993 33.1H13.5007C13.098 33.1 12.7222 33.2495 12.4387 33.5238C12.1597 33.796 12 34.1685 12 34.55C12 34.7418 12.0382 34.927 12.1147 35.1055C12.189 35.2817 12.2993 35.4378 12.441 35.5784C12.5828 35.7145 12.747 35.8193 12.9293 35.8929C13.1115 35.9665 13.3027 36 13.5007 36H28.5015C28.8952 36 29.2822 35.8461 29.5658 35.5739C29.847 35.2995 30 34.9337 30 34.55C30 34.1663 29.8403 33.7915 29.5635 33.5283C29.2822 33.2539 28.9043 33.1 28.4993 33.1ZM38.1202 7.84769C37.5622 7.31008 36.7905 7 36.0007 7H5.99925C5.2005 7 4.44675 7.30115 3.8775 7.84992C3.31275 8.39646 3 9.12592 3 9.9V28.75C3 29.5263 3.31275 30.2535 3.87975 30.8023C4.44675 31.3488 5.2005 31.65 6.0015 31.65H36.0007C36.7905 31.65 37.5622 31.3399 38.1202 30.8001C38.6872 30.2535 39 29.5263 39 28.75V9.9C39 9.12592 38.6872 8.39646 38.1202 7.84769ZM36.0007 10.625V28.025C36.0007 28.2191 35.922 28.402 35.7803 28.5358C35.6385 28.6742 35.4495 28.75 35.2493 28.75H6.75075C6.555 28.75 6.3615 28.6719 6.222 28.5381C6.08025 28.3998 6.0015 28.2168 6.0015 28.025V10.625C6.0015 10.4309 6.08025 10.2502 6.222 10.1119C6.36375 9.97362 6.5505 9.9 6.75075 9.9H35.2515C35.4517 9.9 35.6408 9.97585 35.7825 10.1119C35.922 10.2502 36.0007 10.4332 36.0007 10.625Z" fill="#505050"/>
</svg>
